<svg xmlns="http://www.w3.org/2000/svg" version="1.1" xmlns:xlink="http://www.w3.org/1999/xlink" xmlns:svgjs="http://svgjs.com/svgjs" width="2788.08" height="2787.43"><svg xmlns="http://www.w3.org/2000/svg" style="shape-rendering:geometricPrecision;text-rendering:geometricPrecision;image-rendering:optimizeQuality;fill-rule:evenodd;clip-rule:evenodd" viewBox="689.42 371.07 2788.08 2787.43">
  <path style="opacity:.566" fill="#5a0ffe" d="M2799.5 514.5c-488.67-.167-977.33 0-1466 .5-5.05.272-10.05.772-15 1.5-3.68-.165-7.35.001-11 .5-1.24.232-2.24.732-3 1.5h-2c-4.93-.271-9.6.396-14 2-3.35-.165-6.68.002-10 .5-.92.278-1.58.778-2 1.5-2.56-.302-4.89.032-7 1-3.99-.384-7.66.283-11 2-3.33-.285-6.33.382-9 2-1.94.65-3.94.983-6 1-2.65-.09-4.99.576-7 2h-2c-2.65-.09-4.99.576-7 2-2.65-.09-4.99.576-7 2-2.65-.09-4.99.576-7 2-3.66.223-7 1.223-10 3-4.72 2.239-9.72 3.905-15 5-4.04.565-7.7 1.899-11 4-2.29.095-4.29.762-6 2-1.9.296-3.57.963-5 2a706.49 706.49 0 0 0-34 15c-1.53-.073-2.53.594-3 2a140.22 140.22 0 0 0-20 10c-1.53-.073-2.53.594-3 2-1.65.16-2.99.826-4 2-1.53-.073-2.53.594-3 2-6.17 2.58-11.84 5.914-17 10-1.53-.073-2.53.594-3 2-74.05 46.716-132.718 108.049-176 184-1.406.473-2.073 1.473-2 3-18.725 31.795-33.392 65.462-44 101-1.777 3.005-2.777 6.338-3 10-1.424 2.015-2.09 4.348-2 7-1.424 2.015-2.09 4.348-2 7-1.424 2.015-2.09 4.348-2 7v2c-1.424 2.015-2.09 4.348-2 7-.934 1.068-1.268 2.401-1 4h-1c7.932-165.43 72.599-303.93 194-415.5 118.43-100.497 254.43-147.997 408-142.5 451.16 47.482 902.16 95.149 1353 143z"></path>
  <path style="opacity:1" d="M2806.5 514.5c35.22-.261 69.89 3.405 104 11a8.43 8.43 0 0 0-4 .5c4.32.996 8.65 1.83 13 2.5 3.28-.08 6.28.587 9 2a894.254 894.254 0 0 1 16 4c2.01 1.424 4.35 2.09 7 2 1.07.934 2.4 1.268 4 1 3 1.777 6.34 2.777 10 3a143.488 143.488 0 0 0 22 8h1c2.01 1.565 4.34 2.565 7 3 1.43 1.037 3.1 1.704 5 2 1.43 1.037 3.1 1.704 5 2 1.43 1.037 3.1 1.704 5 2 15.26 7.297 30.6 14.63 46 22 .47 1.406 1.47 2.073 3 2 1.01 1.174 2.35 1.84 4 2 .47 1.406 1.47 2.073 3 2 1.01 1.174 2.35 1.84 4 2 .47 1.406 1.47 2.073 3 2 1.01 1.174 2.35 1.84 4 2 .47 1.406 1.47 2.073 3 2 .47 1.406 1.47 2.073 3 2 .47 1.406 1.47 2.073 3 2 1.4 1.39 3.07 2.39 5 3 .47 1.406 1.47 2.073 3 2 .47 1.406 1.47 2.073 3 2a502.69 502.69 0 0 0 25 18c.47 1.406 1.47 2.073 3 2a71.989 71.989 0 0 0 11 9c.47 1.406 1.47 2.073 3 2 37.89 31.719 71.05 67.719 99.5 108a721.117 721.117 0 0 1 17.5 28c-.07 1.527.59 2.527 2 3 1.17 1.014 1.84 2.347 2 4-.07 1.527.59 2.527 2 3 1.17 1.014 1.84 2.347 2 4-.07 1.527.59 2.527 2 3 14.33 25.858 26.33 52.858 36 81 1.1 4.644 2.77 8.978 5 13-.24 1.291.1 2.291 1 3-.24 2.398.43 4.398 2 6 3.68 14.725 7.35 29.392 11 44-.21 2.995.46 5.662 2 8 .12 4.549.79 8.882 2 13 2.19 19.507 4.52 38.84 7 58-.33 494.03 0 988.03 1 1482-.14 29.11-3.14 57.77-9 86-1.76 3.35-2.76 7.02-3 11a492.28 492.28 0 0 0-7 30c-1.42 2.01-2.09 4.35-2 7-1.42 2.01-2.09 4.35-2 7-1.42 2.01-2.09 4.35-2 7-1.78 3-2.78 6.34-3 10a42.754 42.754 0 0 0-3 7c-1.37 2.44-2.37 5.1-3 8v1c-1.57 2.01-2.57 4.34-3 7-1.04 1.43-1.7 3.1-2 5-1.04 1.43-1.7 3.1-2 5-2.19 4.58-4.19 9.25-6 14-1.57 2.01-2.57 4.34-3 7-2.09 2.59-3.43 5.59-4 9-3.76 5.18-6.76 10.85-9 17-1.51 1.68-2.51 3.68-3 6-1.41.47-2.07 1.47-2 3-5.33 9-10.66 18-16 27-1.41.47-2.07 1.47-2 3-6.33 9.33-12.66 18.66-19 28-2.09 1.08-3.42 2.75-4 5-1.76.76-2.76 2.1-3 4-2.09 1.08-3.42 2.75-4 5-2.09 1.08-3.42 2.75-4 5-2.09 1.08-3.42 2.75-4 5a32.249 32.249 0 0 0-9 10c-2.09 1.08-3.42 2.75-4 5-3.67 3-7 6.33-10 10-2.74 1.74-4.74 4.07-6 7a25.888 25.888 0 0 0-6 6 84.762 84.762 0 0 0-16 15c-32.57 28.62-67.9 53.28-106 74-1.53-.07-2.53.59-3 2a502.849 502.849 0 0 1-38 18c-2.9.63-5.56 1.63-8 3-1.9.3-3.57.96-5 2-2.47.25-4.47 1.25-6 3h-2c-1.53-.07-2.53.59-3 2h-2c-1.9.3-3.57.96-5 2-1.71 1.24-3.71 1.91-6 2-2.85.05-5.18 1.05-7 3-2.72.46-5.39 1.13-8 2-2.65-.09-4.99.58-7 2-2.65-.09-4.99.58-7 2-2.4-.24-4.4.43-6 2-4.71.79-9.38 1.79-14 3-2.65-.09-4.99.58-7 2-2.36.17-4.69.51-7 1-3.23.18-6.23.84-9 2-3-.21-5.66.46-8 2-10.14 2.06-20.47 3.39-31 4-9.56.26-18.9 1.26-28 3-489.32 1-978.65 1.33-1468 1-39.87.84-79.2-3.16-118-12-2.01-1.42-4.35-2.09-7-2-1.07-.93-2.4-1.27-4-1-2.01-1.42-4.35-2.09-7-2h-1c-1.6-1.57-3.6-2.24-6-2h-1c-1.6-1.57-3.6-2.24-6-2h-1c-1.6-1.57-3.6-2.24-6-2h-1c-4-2.11-8.34-3.44-13-4-27.22-8.29-53.22-19.29-78-33-.47-1.41-1.47-2.07-3-2-5.48-1.91-10.48-4.57-15-8-.47-1.41-1.47-2.07-3-2-1.65-.16-2.99-.83-4-2-.47-1.41-1.47-2.07-3-2-4.84-1.92-9.18-4.58-13-8-.47-1.41-1.47-2.07-3-2a275.734 275.734 0 0 1-26-18c-.47-1.41-1.47-2.07-3-2-74.957-56.78-131.457-128.11-169.5-214a660.294 660.294 0 0 1-12.5-34c-.052-2.85-1.052-5.18-3-7l-4-12c.09-2.65-.576-4.99-2-7a194.194 194.194 0 0 1-6-23c.329-2.73-.337-5.06-2-7a314.333 314.333 0 0 0-4-20c.198-5.04-.802-9.7-3-14v-4a369.128 369.128 0 0 0-5-38c-.524-13.66-1.024-27.33-1.5-41-.5-481-.667-962-.5-1443a498.56 498.56 0 0 1 11-110c1.574-1.602 2.241-3.602 2-6-.268-1.599.066-2.932 1-4 1.424-2.015 2.09-4.348 2-7v-2c1.424-2.015 2.09-4.348 2-7 1.424-2.015 2.09-4.348 2-7 1.424-2.015 2.09-4.348 2-7 1.777-3.005 2.777-6.338 3-10 10.608-35.538 25.275-69.205 44-101 1.406-.473 2.073-1.473 2-3 43.282-75.951 101.95-137.284 176-184 1.53.073 2.53-.594 3-2 5.16-4.086 10.83-7.42 17-10 1.53.073 2.53-.594 3-2 1.01-1.174 2.35-1.84 4-2 1.53.073 2.53-.594 3-2a140.22 140.22 0 0 1 20-10c1.53.073 2.53-.594 3-2a706.49 706.49 0 0 1 34-15c2.2.38 3.86-.287 5-2 2.4.241 4.4-.426 6-2 4.03-.525 7.7-1.858 11-4 5.28-1.095 10.28-2.761 15-5 3.76.105 7.09-.895 10-3 2.65.09 4.99-.576 7-2 2.65.09 4.99-.576 7-2 2.65.09 4.99-.576 7-2h2c2.65.09 4.99-.576 7-2 2.06-.017 4.06-.35 6-1 3.23-.176 6.23-.843 9-2 3.86-.308 7.53-.975 11-2 2.11-.968 4.44-1.302 7-1 4.18-.351 8.18-1.018 12-2 4.91.138 9.58-.528 14-2h2c4.63-.729 9.3-1.063 14-1 10.66-.572 21.33-1.072 32-1.5 485.5-.167 970.83-.667 1456-1.5z"></path>
  <path style="opacity:.89" fill="#1d0855" d="M2799.5 514.5h7c-485.17.833-970.5 1.333-1456 1.5-10.67.428-21.34.928-32 1.5v-1a163.45 163.45 0 0 1 15-1.5c488.67-.5 977.33-.667 1466-.5z"></path>
  <path style="opacity:.718" fill="#350994" d="M1318.5 516.5v1c-4.7-.063-9.37.271-14 1 .76-.768 1.76-1.268 3-1.5 3.65-.499 7.32-.665 11-.5z"></path>
  <path style="opacity:.882" fill="#1e0857" d="M1302.5 518.5c-4.42 1.472-9.09 2.138-14 2 4.4-1.604 9.07-2.271 14-2z"></path>
  <path style="opacity:.855" fill="#220861" d="M1288.5 520.5c-3.82.982-7.82 1.649-12 2 .42-.722 1.08-1.222 2-1.5 3.32-.498 6.65-.665 10-.5z"></path>
  <path style="opacity:.792" fill="#290874" d="M1269.5 523.5c-3.47 1.025-7.14 1.692-11 2 3.34-1.717 7.01-2.384 11-2z"></path>
  <path style="opacity:.851" fill="#220760" d="M1258.5 525.5c-2.77 1.157-5.77 1.824-9 2 2.67-1.618 5.67-2.285 9-2z"></path>
  <path style="opacity:.745" fill="#1f0858" d="M2910.5 525.5c2.36.174 4.69.507 7 1 .67.667 1.33 1.333 2 2-4.35-.67-8.68-1.504-13-2.5a8.43 8.43 0 0 1 4-.5z"></path>
  <path style="opacity:.565" fill="#5a0ffd" d="M2917.5 526.5c160.91 7.06 296.75 68.394 407.5 184 91.04 100.882 141.2 217.715 150.5 350.5.69 5.16 1.36 10.32 2 15.5a870.08 870.08 0 0 0 0 49c-47.26 457.03-95.26 914.03-144 1371-1-493.97-1.33-987.97-1-1482-.55-19.69-2.88-39.023-7-58-1.21-4.118-1.88-8.451-2-13 .21-2.995-.46-5.662-2-8-3.65-14.608-7.32-29.275-11-44-.09-2.286-.76-4.286-2-6-.9-.709-1.24-1.709-1-3-.71-4.824-2.38-9.157-5-13-9.67-28.142-21.67-55.142-36-81 .07-1.527-.59-2.527-2-3-.16-1.653-.83-2.986-2-4 .07-1.527-.59-2.527-2-3-.16-1.653-.83-2.986-2-4 .07-1.527-.59-2.527-2-3a721.117 721.117 0 0 0-17.5-28c-28.45-40.281-61.61-76.281-99.5-108-.47-1.406-1.47-2.073-3-2a71.989 71.989 0 0 1-11-9c-.47-1.406-1.47-2.073-3-2a502.69 502.69 0 0 1-25-18c-.47-1.406-1.47-2.073-3-2-.47-1.406-1.47-2.073-3-2-1.93-.61-3.6-1.61-5-3-.47-1.406-1.47-2.073-3-2-.47-1.406-1.47-2.073-3-2-.47-1.406-1.47-2.073-3-2-1.65-.16-2.99-.826-4-2-.47-1.406-1.47-2.073-3-2-1.65-.16-2.99-.826-4-2-.47-1.406-1.47-2.073-3-2-1.65-.16-2.99-.826-4-2-.47-1.406-1.47-2.073-3-2-15.4-7.37-30.74-14.703-46-22-1.14-1.713-2.8-2.38-5-2-1.14-1.713-2.8-2.38-5-2-1.9-.296-3.57-.963-5-2-1.68-2.334-4.01-3.334-7-3h-1c-.11-.617-.44-1.117-1-1.5a252.494 252.494 0 0 0-21-6.5c-3-1.777-6.34-2.777-10-3-1.6.268-2.93-.066-4-1-2.01-1.424-4.35-2.09-7-2-4.81-3.048-10.14-4.382-16-4-2.72-1.413-5.72-2.08-9-2-.67-.667-1.33-1.333-2-2z"></path>
  <path style="opacity:.851" fill="#240764" d="M1243.5 528.5c-2.01 1.424-4.35 2.09-7 2 2.01-1.424 4.35-2.09 7-2z"></path>
  <path style="opacity:.835" fill="#290774" d="M1234.5 530.5c-2.01 1.424-4.35 2.09-7 2 2.01-1.424 4.35-2.09 7-2z"></path>
  <path style="opacity:.667" fill="#2f0a85" d="M2928.5 530.5c5.86-.382 11.19.952 16 4a894.254 894.254 0 0 0-16-4z"></path>
  <path style="opacity:.851" fill="#240767" d="M1227.5 532.5c-2.01 1.424-4.35 2.09-7 2 2.01-1.424 4.35-2.09 7-2z"></path>
  <path style="opacity:.851" fill="#230765" d="M1220.5 534.5c-2.01 1.424-4.35 2.09-7 2 2.01-1.424 4.35-2.09 7-2z"></path>
  <path style="opacity:.706" fill="#28086f" d="M2944.5 534.5c2.65-.09 4.99.576 7 2-2.65.09-4.99-.576-7-2z"></path>
  <path style="opacity:.851" fill="#210959" d="M1213.5 536.5c-2.91 2.105-6.24 3.105-10 3 3-1.777 6.34-2.777 10-3z"></path>
  <path style="opacity:.659" fill="#2c097d" d="M2955.5 537.5c3.66.223 7 1.223 10 3-3.66-.223-7-1.223-10-3z"></path>
  <path style="opacity:.651" fill="#2f0985" d="M2965.5 540.5a252.494 252.494 0 0 1 21 6.5c.56.383.89.883 1 1.5a143.488 143.488 0 0 1-22-8z"></path>
  <path style="opacity:.859" fill="#200956" d="M1188.5 544.5c-3.3 2.142-6.97 3.475-11 4 3.3-2.101 6.96-3.435 11-4z"></path>
  <path style="opacity:.584" fill="#3b0aa5" d="M2988.5 548.5c2.99-.334 5.32.666 7 3-2.66-.435-4.99-1.435-7-3z"></path>
  <path style="opacity:.859" fill="#26086a" d="M1177.5 548.5c-1.6 1.574-3.6 2.241-6 2 1.71-1.238 3.71-1.905 6-2z"></path>
  <path style="opacity:.859" fill="#27096f" d="M1171.5 550.5c-1.14 1.713-2.8 2.38-5 2 1.43-1.037 3.1-1.704 5-2z"></path>
  <path style="opacity:.616" fill="#330a8f" d="M3000.5 553.5c2.2-.38 3.86.287 5 2-1.9-.296-3.57-.963-5-2z"></path>
  <path style="opacity:.616" fill="#320a8e" d="M3005.5 555.5c2.2-.38 3.86.287 5 2-1.9-.296-3.57-.963-5-2z"></path>
  <path style="opacity:.878" fill="#1d0955" d="M1132.5 567.5c-.47 1.406-1.47 2.073-3 2 .47-1.406 1.47-2.073 3-2z"></path>
  <path style="opacity:.898" fill="#1b0a4f" d="M1109.5 579.5c-.47 1.406-1.47 2.073-3 2 .47-1.406 1.47-2.073 3-2z"></path>
  <path style="opacity:.714" fill="#2d087f" d="M3056.5 579.5c1.53-.073 2.53.594 3 2-1.53.073-2.53-.594-3-2z"></path>
  <path style="opacity:.878" fill="#1d0955" d="M1102.5 583.5c-.47 1.406-1.47 2.073-3 2 .47-1.406 1.47-2.073 3-2z"></path>
  <path style="opacity:.702" fill="#2f0884" d="M3063.5 583.5c1.53-.073 2.53.594 3 2-1.53.073-2.53-.594-3-2zM3070.5 587.5c1.53-.073 2.53.594 3 2-1.53.073-2.53-.594-3-2z"></path>
  <path style="opacity:.682" fill="#330990" d="M3077.5 591.5c1.53-.073 2.53.594 3 2-1.53.073-2.53-.594-3-2z"></path>
  <path style="opacity:.694" fill="#300886" d="M3080.5 593.5c1.53-.073 2.53.594 3 2-1.53.073-2.53-.594-3-2z"></path>
  <path style="opacity:.894" fill="#1a094b" d="M1082.5 595.5c-.47 1.406-1.47 2.073-3 2 .47-1.406 1.47-2.073 3-2z"></path>
  <path style="opacity:.706" fill="#2e0980" d="M3083.5 595.5c1.53-.073 2.53.594 3 2-1.53.073-2.53-.594-3-2z"></path>
  <path style="opacity:.686" fill="#33098e" d="M3091.5 600.5c1.53-.073 2.53.594 3 2-1.53.073-2.53-.594-3-2z"></path>
  <path style="opacity:.694" fill="#300886" d="M3094.5 602.5c1.53-.073 2.53.594 3 2-1.53.073-2.53-.594-3-2z"></path>
  <path style="opacity:.631" fill="#33098f" d="M3122.5 622.5c1.53-.073 2.53.594 3 2-1.53.073-2.53-.594-3-2zM3136.5 633.5c1.53-.073 2.53.594 3 2-1.53.073-2.53-.594-3-2z"></path>
  <path style="opacity:.8" fill="#200959" d="M3256.5 771.5c1.41.473 2.07 1.473 2 3-1.41-.473-2.07-1.473-2-3z"></path>
  <path style="opacity:.808" fill="#1f0958" d="M3260.5 778.5c1.41.473 2.07 1.473 2 3-1.41-.473-2.07-1.473-2-3z"></path>
  <path style="opacity:.831" fill="#1c084e" d="M903.5 781.5c.073 1.527-.594 2.527-2 3-.073-1.527.594-2.527 2-3z"></path>
  <path style="opacity:.812" fill="#1f0955" d="M3264.5 785.5c1.41.473 2.07 1.473 2 3-1.41-.473-2.07-1.473-2-3z"></path>
  <path style="opacity:.694" fill="#280a73" d="M3302.5 869.5c2.62 3.843 4.29 8.176 5 13-2.23-4.022-3.9-8.356-5-13z"></path>
  <path style="opacity:.929" fill="#190945" d="M857.5 885.5c-.223 3.662-1.223 6.995-3 10 .223-3.662 1.223-6.995 3-10z"></path>
  <path style="opacity:.867" fill="#26096d" d="M3308.5 885.5c1.24 1.714 1.91 3.714 2 6-1.57-1.602-2.24-3.602-2-6z"></path>
  <path style="opacity:.902" fill="#1a094c" d="M854.5 895.5c.09 2.652-.576 4.985-2 7-.09-2.652.576-4.985 2-7z"></path>
  <path style="opacity:.898" fill="#1b094f" d="M852.5 902.5c.09 2.652-.576 4.985-2 7-.09-2.652.576-4.985 2-7z"></path>
  <path style="opacity:.847" fill="#1e0854" d="M850.5 909.5c.09 2.652-.576 4.985-2 7-.09-2.652.576-4.985 2-7z"></path>
  <path style="opacity:.847" fill="#1b084d" d="M848.5 918.5c.09 2.652-.576 4.985-2 7-.09-2.652.576-4.985 2-7z"></path>
  <path style="opacity:.408" fill="#2f0887" d="M844.5 929.5h1c.241 2.398-.426 4.398-2 6a19.22 19.22 0 0 1 1-6z"></path>
  <path style="opacity:.69" fill="#300a88" d="M3321.5 935.5c1.54 2.338 2.21 5.005 2 8-1.54-2.338-2.21-5.005-2-8z"></path>
  <path style="opacity:.714" fill="#2f0985" d="M3325.5 956.5c4.12 18.977 6.45 38.31 7 58-2.48-19.16-4.81-38.493-7-58z"></path>
  <path style="opacity:.566" fill="#5a0ffe" d="M832.5 1045.5c-.167 481 0 962 .5 1443 .476 13.67.976 27.34 1.5 41 .657 12.94 2.324 25.61 5 38v4c.398 4.91 1.398 9.58 3 14 1.546 6.61 2.88 13.27 4 20 .221 2.57.888 4.9 2 7a194.194 194.194 0 0 0 6 23c-.09 2.65.576 4.99 2 7l4 12c.435 2.66 1.435 4.99 3 7a660.294 660.294 0 0 0 12.5 34c38.043 85.89 94.543 157.22 169.5 214 .47 1.41 1.47 2.07 3 2 8.31 6.49 16.98 12.49 26 18 .47 1.41 1.47 2.07 3 2 3.82 3.42 8.16 6.08 13 8 .47 1.41 1.47 2.07 3 2 1.01 1.17 2.35 1.84 4 2 .47 1.41 1.47 2.07 3 2 4.52 3.43 9.52 6.09 15 8 .47 1.41 1.47 2.07 3 2 24.78 13.71 50.78 24.71 78 33 4 2.11 8.34 3.44 13 4h1c1.6 1.57 3.6 2.24 6 2h1c1.6 1.57 3.6 2.24 6 2h1c1.6 1.57 3.6 2.24 6 2h1c2.01 1.42 4.35 2.09 7 2 1.6-.27 2.93.07 4 1v1c-173.15-9.69-315.32-80.36-426.5-212-66.987-85.35-107.82-180.85-122.5-286.5.145-.77.478-1.44 1-2a383.933 383.933 0 0 1-5-37.5c-.095-21.43-.095-43.1 0-65 47.537-451.5 95.204-902.83 143-1354z"></path>
  <path style="opacity:1" fill="#323232" d="M3081.5 1841.5c.33-72.67 0-145.34-1-218-49.65-22.66-99.32-45-149-67 1.32.17 2.49-.16 3.5-1 4-39.5 3.33-78.83-2-118-4.73-22.54-12.07-44.2-22-65-11.55-20.3-27.05-36.8-46.5-49.5-45.62-23.11-94.29-35.94-146-38.5-3.48-.82-7.14-1.32-11-1.5-56.33-.28-112.67-.11-169 .5-.33 13.18 0 26.18 1 39v57a3787.378 3787.378 0 0 0-75-33c0-.67-.33-1-1-1-.71-.9-1.71-1.24-3-1-.33 64.84 0 129.5 1 194h1c27.55 12.28 55.22 24.28 83 36-1.33 5.29-2 10.96-2 17 1.36 48.99 2.36 97.99 3 147 50.01-.32 100.01-1.16 150-2.5 49.27-1.18 96.27-11.52 141-31 1.91-1.5 3.91-2.83 6-4-.56-.38-.89-.88-1-1.5a984.56 984.56 0 0 1 77 33.5c-152.2 63.94-304.2 128.11-456 192.5h-2c-1 64.83-1.33 129.83-1 195 1.29.24 2.29-.1 3-1 29.48-13.57 59.15-26.9 89-40 .16 34.91.83 69.74 2 104.5a710.55 710.55 0 0 1 61 14c18.26 6.15 36.59 12.15 55 18 13.11 6.39 26.11 13.06 39 20 8.08 6.04 15.74 12.54 23 19.5.33 1.5.67 3 1 4.5a7631.253 7631.253 0 0 0-17 159.5c-176.32 3.56-352.66 6.56-529 9-6.12-43.39-11.62-86.73-16.5-130-2.97-10.72-4.31-21.72-4-33 11-12.67 23.5-23.5 37.5-32.5 12.42-6.48 24.76-13.14 37-20 9.96-4.27 19.96-8.43 30-12.5 1.16-31.16 1.33-62.5.5-94-3.17-200.51-7-400.84-11.5-601a51444.95 51444.95 0 0 0 109-283c.84-.34 1.17-1.01 1-2 .9-.71 1.24-1.71 1-3h-221c2.22-20.61 4.06-41.27 5.5-62 1.27-11.82 2.93-23.49 5-35 1.5-13.96 2.33-27.96 2.5-42 173.82-3.63 347.65-6.63 521.5-9 76.58-.9 152.41 5.27 227.5 18.5 23 5.9 46 11.9 69 18 134.96 43.63 214.12 135.47 237.5 275.5 1.45 2.8 2.45 5.8 3 9 8.57 56.08 10.9 112.41 7 169-4.33 45.68-15 89.68-32 132-25.79 57.45-63.79 105.11-114 143-.19 2.54-.69 4.87-1.5 7zM1879.5 1480.5c-50.67.71-101.33 1.38-152 2-11.32-22.32-20.15-45.65-26.5-70a634.274 634.274 0 0 1-14.5-91c-70.5-21.97-142.83-30.13-217-24.5-12.87 2.83-25.87 5.5-39 8-70.25 22.92-121.08 67.76-152.5 134.5-11.12 26.51-20.12 53.85-27 82-1.24 6.62-2.07 13.29-2.5 20-60.08 27.14-120.08 54.47-180 82-1.33 35.99-2 72.33-2 109 0 36.5.33 72.83 1 109 60.41 27.47 120.74 54.8 181 82-1.23.65-1.89 1.82-2 3.5 8.04 57.03 23.04 112.03 45 165 3.13 2.35 4.96 5.52 5.5 9.5 9.87 18.96 21.2 36.96 34 54a346.756 346.756 0 0 0 39.5 38.5c30.82 23.05 65.48 36.38 104 40 76.45 4.25 150.12-7.25 221-34.5-.92-73.67-2.08-147.34-3.5-221-1.09-.79-2.25-1.46-3.5-2-.67 47.83-1.33 95.5-2 143 .66-65.01 0-129.68-2-194a9258.57 9258.57 0 0 1-117-50h3c4.99-40.93 9.33-81.93 13-123 111-2.33 222-4.33 333-6-46.19 119.25-92.19 238.58-138 358-.9.71-1.24 1.71-1 3h198c.45 71.67 1.45 143.34 3 215a618.948 618.948 0 0 1-75 49.5c-28.56 14.8-57.9 27.8-88 39-23.16 6.96-46.49 13.63-70 20-115.52 22.33-232.18 29.67-350 22a430.734 430.734 0 0 0-43-5c-26.34-5.11-52.51-11.27-78.5-18.5-20.89-7.97-41.73-16.13-62.5-24.5-75.7-36.84-134.53-92-176.5-165.5-24.29-45.45-43.293-93.12-57-143a1677.568 1677.568 0 0 1-15.5-68c-4.334-22.5-7.5-45.17-9.5-68a155.495 155.495 0 0 1-3-16c-3.57-37.59-6.403-75.25-8.5-113a1604.207 1604.207 0 0 1 7-220c8.537-92.53 33.037-180.19 73.5-263 66.9-121.96 166.57-204.29 299-247 65.38-19.03 132.22-28.37 200.5-28 91.48-1.76 180.82 10.07 268 35.5a313.34 313.34 0 0 0 45.5 15.5c25.76 11.86 51.26 24.19 76.5 37 14.15 8.99 28.15 18.16 42 27.5.95.48 1.95.65 3 .5.23 24.18-.1 48.34-1 72.5-4.17 55.44-13.34 109.94-27.5 163.5a108 108 0 0 1-4 9c-1.52 9.22-3.85 18.22-7 27-3.38 6.09-6.21 12.42-8.5 19h-29z"></path>
  <path style="opacity:1" fill="#606060" d="M2120.5 1218.5c9.82-.99 19.82-1.33 30-1h221c.24 1.29-.1 2.29-1 3-82.99-2-166.33-2.66-250-2z"></path>
  <path style="opacity:1" fill="#d2d2d2" d="M2120.5 1219.5v-1c83.67-.66 167.01 0 250 2 .17.99-.16 1.66-1 2v-3h-249z"></path>
  <path style="opacity:1" fill="#fefefe" d="M2120.5 1219.5h249v3a51444.95 51444.95 0 0 1-109 283c-.61.89-.94 1.89-1 3-77.4 199.22-154.4 398.55-231 598-83.67.66-167.01 0-250-2 45.81-119.42 91.81-238.75 138-358 67.64-175.94 135.64-351.61 204-527z"></path>
  <path style="opacity:1" fill="#151515" d="M2718.5 1284.5c-59.66-.5-119.33-.17-179 1v37c-1-12.82-1.33-25.82-1-39 56.33-.61 112.67-.78 169-.5 3.86.18 7.52.68 11 1.5z"></path>
  <path style="opacity:1" d="M2718.5 1284.5c51.71 2.56 100.38 15.39 146 38.5 19.45 12.7 34.95 29.2 46.5 49.5 9.93 20.8 17.27 42.46 22 65 5.33 39.17 6 78.5 2 118-1.01.84-2.18 1.17-3.5 1-130.72-59.03-261.39-118.03-392-177v-94c59.67-1.17 119.34-1.5 179-1z"></path>
  <path style="opacity:1" fill="#fefefe" d="M1683.5 1346.5c2 63.99 2.66 128.32 2 193-150.45 63.06-300.79 126.39-451 190-7 1.55-7.33 3.21-1 5 111.03 47.51 222.37 94.51 334 141a9258.57 9258.57 0 0 0 117 50 4668.29 4668.29 0 0 1 0 193c-4.95-1.8-9.95-3.63-15-5.5-140.3-63.32-280.63-126.49-421-189.5-60.26-27.2-120.59-54.53-181-82-.33-72.74 0-145.4 1-218 59.92-27.53 119.92-54.86 180-82 144.92-65.19 289.92-130.19 435-195z"></path>
  <path style="opacity:1" fill="#e2e2e2" d="M1683.5 1346.5c.34-.84 1.01-1.17 2-1 1 64.16 1.33 128.5 1 193 0 .67-.33 1-1 1 .66-64.68 0-129.01-2-193z"></path>
  <path style="opacity:1" fill="#fefefe" d="M2464.5 1346.5c25.12 10.73 50.12 21.73 75 33 130.61 58.97 261.28 117.97 392 177 49.68 22 99.35 44.34 149 67 1 72.66 1.33 145.33 1 218a259.81 259.81 0 0 0-29 13 5056.79 5056.79 0 0 0-122 55 48340.225 48340.225 0 0 0-378 170c-29.85 13.1-59.52 26.43-89 40h-1c-.33-64.74 0-129.4 1-194 151.8-64.39 303.8-128.56 456-192.5a984.56 984.56 0 0 0-77-33.5c-99.12-41.52-198.12-83.19-297-125a4507.692 4507.692 0 0 1-83-36c-.66-64.34 0-128.34 2-192z"></path>
  <path style="opacity:1" fill="#4e4e4e" d="M1685.5 1345.5c.06-.54.39-.88 1-1 1.33 64.83 1.33 129.5 0 194 .33-64.5 0-128.84-1-193z"></path>
  <path style="opacity:1" fill="#494949" d="M2463.5 1345.5c-2 63.99-2.66 128.32-2 193-1-64.5-1.33-129.16-1-194 1.29-.24 2.29.1 3 1z"></path>
  <path style="opacity:1" fill="#181818" d="M1879.5 1480.5c-25.15 1.63-50.48 2.46-76 2.5-25.5.83-50.84.66-76-.5 50.67-.62 101.33-1.29 152-2z"></path>
  <path style="opacity:1" fill="silver" d="M2463.5 1345.5c.67 0 1 .33 1 1-2 63.66-2.66 127.66-2 192h-1c-.66-64.68 0-129.01 2-193z"></path>
  <path style="opacity:1" fill="#010101" d="M2545.5 1574.5c98.88 41.81 197.88 83.48 297 125 .11.62.44 1.12 1 1.5-2.09 1.17-4.09 2.5-6 4-44.73 19.48-91.73 29.82-141 31-49.99 1.34-99.99 2.18-150 2.5-.64-49.01-1.64-98.01-3-147 0-6.04.67-11.71 2-17z"></path>
  <path style="opacity:1" fill="#d0d0d0" d="M1068.5 1623.5c-1 72.6-1.33 145.26-1 218-.67-36.17-1-72.5-1-109 0-36.67.67-73.01 2-109z"></path>
  <path style="opacity:1" fill="#1d1d1d" d="M2260.5 1505.5c4.5 200.16 8.33 400.49 11.5 601 .83 31.5.66 62.84-.5 94-3.22-230.84-7.22-461.51-12-692 .06-1.11.39-2.11 1-3z"></path>
  <path style="opacity:1" fill="#454545" d="M1234.5 1729.5c-.8 1.54-1.13 3.21-1 5-6.33-1.79-6-3.45 1-5z"></path>
  <path style="opacity:1" fill="#161616" d="M948.5 1611.5a1604.207 1604.207 0 0 0-7 220c-2.867-59.53-2.367-119.19 1.5-179 1.87-13.81 3.704-27.48 5.5-41z"></path>
  <path style="opacity:1" fill="#3b3b3b" d="M3052.5 1854.5c-2.16 3.32-5.16 5.82-9 7.5-17.03 8.38-34.03 16.71-51 25-6.6 2.53-13.27 4.87-20 7-8.09 5.26-16.93 8.76-26.5 10.5-4.62 3.23-9.79 4.9-15.5 5a5056.79 5056.79 0 0 1 122-55z"></path>
  <path style="opacity:1" d="M1248.5 1923.5c140.37 63.01 280.7 126.18 421 189.5 5.05 1.87 10.05 3.7 15 5.5.34.84 1.01 1.17 2 1 .67-47.5 1.33-95.17 2-143 1.25.54 2.41 1.21 3.5 2 1.42 73.66 2.58 147.33 3.5 221-70.88 27.25-144.55 38.75-221 34.5-38.52-3.62-73.18-16.95-104-40a346.756 346.756 0 0 1-39.5-38.5 388.193 388.193 0 0 1-34-54c-.54-3.98-2.37-7.15-5.5-9.5-21.96-52.97-36.96-107.97-45-165 .11-1.68.77-2.85 2-3.5z"></path>
  <path style="opacity:1" fill="#484848" d="M2461.5 1925.5c-.33 64.84 0 129.5 1 194h1c-.71.9-1.71 1.24-3 1-.33-65.17 0-130.17 1-195z"></path>
  <path style="opacity:1" fill="#e5e5e5" d="M1684.5 1925.5c2 64.32 2.66 128.99 2 194-.99.17-1.66-.16-2-1a4668.29 4668.29 0 0 0 0-193z"></path>
  <path style="opacity:1" fill="#bebebe" d="M2461.5 1925.5h2c-1 64.6-1.33 129.26-1 194-1-64.5-1.33-129.16-1-194z"></path>
  <path style="opacity:1" fill="#b8b8b8" d="M1778.5 2104.5c82.99 2 166.33 2.66 250 2 0 .67-.33 1-1 1h-250c-.24-1.29.1-2.29 1-3z"></path>
  <path style="opacity:1" fill="#252525" d="M1975.5 2107.5h52c-16.83 1-33.83 1.33-51 1 .46 65.34 1.46 130.67 3 196 0 6.18-.33 12.18-1 18-1.55-71.66-2.55-143.33-3-215z"></path>
  <path style="opacity:.902" fill="#1c0a4d" d="M834.5 2529.5a369.128 369.128 0 0 1 5 38c-2.676-12.39-4.343-25.06-5-38z"></path>
  <path style="opacity:.631" fill="#2f0b83" d="M839.5 2571.5c2.198 4.3 3.198 8.96 3 14-1.602-4.42-2.602-9.09-3-14z"></path>
  <path style="opacity:.263" fill="#2f0886" d="M3324.5 2582.5c.25 3.44-.09 6.77-1 10-.67.33-1.33.67-2 1 .24-3.98 1.24-7.65 3-11z"></path>
  <path style="opacity:.565" fill="#5a0ffe" d="M3323.5 2592.5c-3.64 64.28-15.47 126.62-35.5 187-55.66 148.13-154.16 256.63-295.5 325.5a62.475 62.475 0 0 0-12.5 5.5c-21.97 8.86-44.47 17.2-67.5 25-.59-.21-1.09-.54-1.5-1-3.26 2.09-6.59 3.09-10 3-5.91 2.25-11.91 4.25-18 6-3.19-.35-6.35.32-9.5 2-.59-.21-1.09-.54-1.5-1-9.44 2.86-18.78 5.19-28 7-.56-.52-1.23-.86-2-1-11.99 2.12-23.82 4.12-35.5 6-7.17.08-14.34.08-21.5 0-2.27.79-4.6 1.46-7 2-18.98-.18-38.15-.18-57.5 0-451.15-47.61-902.15-95.28-1353-143 489.35.33 978.68 0 1468-1 9.55-.3 18.89-1.3 28-3 10.53-.61 20.86-1.94 31-4 3 .21 5.66-.46 8-2 3.33.28 6.33-.38 9-2 2.31-.49 4.64-.83 7-1 2.73.33 5.06-.34 7-2 4.62-1.21 9.29-2.21 14-3 2.4.24 4.4-.43 6-2 2.65.09 4.99-.58 7-2 2.65.09 4.99-.58 7-2 2.61-.87 5.28-1.54 8-2 2.66-.43 4.99-1.43 7-3 2.29-.09 4.29-.76 6-2 2.2.38 3.86-.29 5-2h2c1.53.07 2.53-.59 3-2h2c2.47-.25 4.47-1.25 6-3 2.2.38 3.86-.29 5-2 3.22.15 5.88-.85 8-3a502.849 502.849 0 0 0 38-18c1.53.07 2.53-.59 3-2 38.1-20.72 73.43-45.38 106-74a84.762 84.762 0 0 0 16-15c1.67-2.33 3.67-4.33 6-6 2.74-1.74 4.74-4.07 6-7 3-3.67 6.33-7 10-10 2.09-1.08 3.42-2.75 4-5 2.29-3.96 5.29-7.29 9-10 2.09-1.08 3.42-2.75 4-5 2.09-1.08 3.42-2.75 4-5 2.09-1.08 3.42-2.75 4-5 .24-1.9 1.24-3.24 3-4 2.09-1.08 3.42-2.75 4-5 6.34-9.34 12.67-18.67 19-28 1.41-.47 2.07-1.47 2-3 5.34-9 10.67-18 16-27 1.41-.47 2.07-1.47 2-3 .49-2.32 1.49-4.32 3-6 4.26-4.84 7.26-10.5 9-17 .57-3.41 1.91-6.41 4-9 2.33-1.68 3.33-4.01 3-7 1.81-4.75 3.81-9.42 6-14 1.71-1.14 2.38-2.8 2-5 1.71-1.14 2.38-2.8 2-5 2.33-1.68 3.33-4.01 3-7v-1c2.15-2.12 3.15-4.78 3-8 .82-2.49 1.82-4.82 3-7 1.78-3 2.78-6.34 3-10 1.42-2.01 2.09-4.35 2-7 1.42-2.01 2.09-4.35 2-7 1.42-2.01 2.09-4.35 2-7a492.28 492.28 0 0 1 7-30c.67-.33 1.33-.67 2-1z"></path>
  <path style="opacity:.886" fill="#1a094b" d="M846.5 2605.5c1.663 1.94 2.329 4.27 2 7-1.112-2.1-1.779-4.43-2-7z"></path>
  <path style="opacity:.651" fill="#2e097f" d="M3314.5 2623.5c.09 2.65-.58 4.99-2 7-.09-2.65.58-4.99 2-7z"></path>
  <path style="opacity:.655" fill="#2d097e" d="M3312.5 2630.5c.09 2.65-.58 4.99-2 7-.09-2.65.58-4.99 2-7z"></path>
  <path style="opacity:.624" fill="#300987" d="M854.5 2635.5c1.424 2.01 2.09 4.35 2 7-1.424-2.01-2.09-4.35-2-7z"></path>
  <path style="opacity:.655" fill="#2d097e" d="M3310.5 2637.5c.09 2.65-.58 4.99-2 7-.09-2.65.58-4.99 2-7z"></path>
  <path style="opacity:.62" fill="#380a9e" d="M3308.5 2644.5c-.22 3.66-1.22 7-3 10 .22-3.66 1.22-7 3-10z"></path>
  <path style="opacity:.894" fill="#170940" d="M860.5 2654.5c1.948 1.82 2.948 4.15 3 7-1.565-2.01-2.565-4.34-3-7z"></path>
  <path style="opacity:.647" fill="#2c097d" d="M3302.5 2661.5c.15 3.22-.85 5.88-3 8 .63-2.9 1.63-5.56 3-8z"></path>
  <path style="opacity:.596" fill="#370a9a" d="M3299.5 2670.5c.33 2.99-.67 5.32-3 7 .43-2.66 1.43-4.99 3-7z"></path>
  <path style="opacity:.624" fill="#320a8b" d="M3296.5 2677.5c.38 2.2-.29 3.86-2 5 .3-1.9.96-3.57 2-5z"></path>
  <path style="opacity:.627" fill="#310a89" d="M3294.5 2682.5c.38 2.2-.29 3.86-2 5 .3-1.9.96-3.57 2-5z"></path>
  <path style="opacity:.596" fill="#370a9b" d="M3286.5 2701.5c.33 2.99-.67 5.32-3 7 .43-2.66 1.43-4.99 3-7z"></path>
  <path style="opacity:.58" fill="#420cb7" d="M3279.5 2717.5c-1.74 6.5-4.74 12.16-9 17 2.24-6.15 5.24-11.82 9-17z"></path>
  <path style="opacity:.714" fill="#2d097f" d="M3267.5 2740.5c.07 1.53-.59 2.53-2 3-.07-1.53.59-2.53 2-3z"></path>
  <path style="opacity:.686" fill="#310989" d="M3249.5 2770.5c.07 1.53-.59 2.53-2 3-.07-1.53.59-2.53 2-3z"></path>
  <path style="opacity:.627" fill="#3a0aa1" d="M3228.5 2801.5c-.58 2.25-1.91 3.92-4 5 .58-2.25 1.91-3.92 4-5z"></path>
  <path style="opacity:.62" fill="#3c0aa7" d="M3221.5 2810.5c-.58 2.25-1.91 3.92-4 5 .58-2.25 1.91-3.92 4-5z"></path>
  <path style="opacity:.627" fill="#390aa0" d="M3217.5 2815.5c-.58 2.25-1.91 3.92-4 5 .58-2.25 1.91-3.92 4-5z"></path>
  <path style="opacity:.62" fill="#3a0aa1" d="M3213.5 2820.5c-.58 2.25-1.91 3.92-4 5 .58-2.25 1.91-3.92 4-5z"></path>
  <path style="opacity:.62" fill="#3a0aa2" d="M3200.5 2835.5c-.58 2.25-1.91 3.92-4 5 .58-2.25 1.91-3.92 4-5z"></path>
  <path style="opacity:.62" fill="#380a9d" d="M3186.5 2850.5c-1.26 2.93-3.26 5.26-6 7 1.26-2.93 3.26-5.26 6-7z"></path>
  <path style="opacity:.6" fill="#420bb8" d="M3174.5 2863.5a84.762 84.762 0 0 1-16 15 84.762 84.762 0 0 1 16-15z"></path>
  <path style="opacity:.851" fill="#1b094d" d="M1045.5 2909.5c1.53-.07 2.53.59 3 2-1.53.07-2.53-.59-3-2z"></path>
  <path style="opacity:.816" fill="#1e0855" d="M1074.5 2929.5c1.53-.07 2.53.59 3 2-1.53.07-2.53-.59-3-2zM1090.5 2939.5c1.53-.07 2.53.59 3 2-1.53.07-2.53-.59-3-2z"></path>
  <path style="opacity:.816" fill="#1d0853" d="M1097.5 2943.5c1.53-.07 2.53.59 3 2-1.53.07-2.53-.59-3-2z"></path>
  <path style="opacity:.631" fill="#330a8f" d="M3052.5 2952.5c-.47 1.41-1.47 2.07-3 2 .47-1.41 1.47-2.07 3-2z"></path>
  <path style="opacity:.8" fill="#1f0859" d="M1115.5 2953.5c1.53-.07 2.53.59 3 2-1.53.07-2.53-.59-3-2z"></path>
  <path style="opacity:.616" fill="#350a93" d="M3011.5 2972.5c-2.12 2.15-4.78 3.15-8 3 2.44-1.37 5.1-2.37 8-3z"></path>
  <path style="opacity:.616" fill="#2f0a85" d="M3003.5 2975.5c-1.14 1.71-2.8 2.38-5 2 1.43-1.04 3.1-1.7 5-2z"></path>
  <path style="opacity:.612" fill="#33098e" d="M2998.5 2977.5c-1.53 1.75-3.53 2.75-6 3 1.53-1.75 3.53-2.75 6-3z"></path>
  <path style="opacity:.631" fill="#31098a" d="M2990.5 2980.5c-.47 1.41-1.47 2.07-3 2 .47-1.41 1.47-2.07 3-2z"></path>
  <path style="opacity:.612" fill="#300986" d="M2985.5 2982.5c-1.14 1.71-2.8 2.38-5 2 1.43-1.04 3.1-1.7 5-2z"></path>
  <path style="opacity:.627" fill="#300987" d="M2974.5 2986.5c-2.01 1.57-4.34 2.57-7 3 1.82-1.95 4.15-2.95 7-3z"></path>
  <path style="opacity:.882" fill="#20095b" d="M1196.5 2988.5c4.66.56 9 1.89 13 4-4.66-.56-9-1.89-13-4z"></path>
  <path style="opacity:.659" fill="#290974" d="M2959.5 2991.5c-2.01 1.42-4.35 2.09-7 2 2.01-1.42 4.35-2.09 7-2z"></path>
  <path style="opacity:.863" fill="#1b094b" d="M1210.5 2992.5c2.4-.24 4.4.43 6 2-2.4.24-4.4-.43-6-2z"></path>
  <path style="opacity:.659" fill="#290974" d="M2952.5 2993.5c-2.01 1.42-4.35 2.09-7 2 2.01-1.42 4.35-2.09 7-2z"></path>

  <path style="opacity:.596" fill="#350a95" d="M2945.5 2995.5c-1.6 1.57-3.6 2.24-6 2 1.6-1.57 3.6-2.24 6-2z"></path>
  <path style="opacity:.863" fill="#1c094c" d="M1224.5 2996.5c2.4-.24 4.4.43 6 2-2.4.24-4.4-.43-6-2z"></path>
  <path style="opacity:.824" fill="#1f0859" d="M1231.5 2998.5c2.65-.09 4.99.58 7 2-2.65.09-4.99-.58-7-2z"></path>
  <path style="opacity:.596" fill="#33098f" d="M2925.5 3000.5c-1.94 1.66-4.27 2.33-7 2 2.01-1.42 4.35-2.09 7-2z"></path>
  <path style="opacity:.4" fill="#31088e" d="M1242.5 3002.5v-1c2.65-.09 4.99.58 7 2-2.4.05-4.74-.28-7-1z"></path>
  <path style="opacity:.792" fill="#1c0750" d="M2911.5 3003.5c-2.67 1.62-5.67 2.28-9 2 2.77-1.16 5.77-1.82 9-2z"></path>
  <path style="opacity:.596" fill="#350a94" d="M2902.5 3005.5c-2.34 1.54-5 2.21-8 2 2.34-1.54 5-2.21 8-2z"></path>
  <path style="opacity:.784" fill="#220861" d="M2863.5 3011.5c-9.11 1.7-18.45 2.7-28 3 9.1-1.74 18.44-2.74 28-3z"></path>
</svg><style>@media (prefers-color-scheme: light) { :root { filter: none; } }
</style></svg>
